<!-- stack-by-oli.dev | github_icon.svg -->
<svg xmlns="http://www.w3.org/2000/svg" viewBox="0 0 24 24"
     fill="none" stroke="url(#g)" stroke-width="1.6" stroke-linecap="round" stroke-linejoin="round">
  <defs>
    <linearGradient id="g" x1="0%" y1="0%" x2="100%" y2="100%">
      <stop offset="0%"   stop-color="#00ffff"/>
      <stop offset="60%"  stop-color="#a855f7"/>
      <stop offset="100%" stop-color="#ffb100"/>
    </linearGradient>
  </defs>
  <path d="M12 .5C5.65.5.5 5.65.5 12c0 5.1 3.3 9.45 7.9 10.98.6.12.8-.27.8-.6v-2.16c-3.2.7-3.9-1.38-3.9-1.38-.55-1.38-1.35-1.76-1.35-1.76-1.1-.75.08-.73.08-.73 1.22.1 1.87 1.28 1.87 1.28 1.1 1.87 2.9 1.32 3.6 1 .1-.8.43-1.32.78-1.63-2.56-.3-5.26-1.3-5.26-5.75 0-1.27.45-2.3 1.2-3.12-.12-.3-.52-1.52.12-3.16 0 0 .97-.3 3.2 1.2a11.07 11.07 0 0 1 5.8 0c2.23-1.5 3.2-1.2 3.2-1.2.64 1.64.24 2.86.12 3.16.75.82 1.2 1.85 1.2 3.12 0 4.48-2.7 5.45-5.27 5.75.43.38.83 1.14.83 2.3v3.42c0 .33.2.72.83.6A10.96 10.96 0 0 0 23.5 12C23.5 5.65 18.35.5 12 .5Z"/>
</svg>
