<!-- 
  stack-by-oli.dev | Branding v1.0
  File: stack-by-oli_logo_static.svg
  Created: 2025-10-05
  Author: Oliver Groh
  Motto: "Building the future, one line of code at a time."
  Type: Static SVG (No animation)
-->
<svg xmlns="http://www.w3.org/2000/svg" width="980" height="220" viewBox="0 0 980 220" role="img" aria-labelledby="title desc">
  <title id="title">stack-by-oli.dev – branding (static)</title>
  <desc id="desc">Monospace-Schriftzug mit sanftem Gradient und dezentem Icon, ohne Animation.</desc>
  <defs>
    <linearGradient id="gradText" x1="0%" y1="0%" x2="100%" y2="0%">
      <stop offset="0%"  stop-color="#00d1ff"/>
      <stop offset="50%" stop-color="#7b2cff"/>
      <stop offset="100%" stop-color="#ffb300"/>
    </linearGradient>
    <filter id="softGlow" x="-30%" y="-30%" width="160%" height="160%">
      <feGaussianBlur stdDeviation="3.2" result="b"/>
      <feMerge><feMergeNode in="b"/><feMergeNode in="SourceGraphic"/></feMerge>
    </filter>
  </defs>
  <style>
    .mono { font-family: ui-monospace, Menlo, Consolas, "Liberation Mono", monospace; letter-spacing: 0.5px; }
    .brand { fill: url(#gradText); filter: url(#softGlow); }
    .slogan { fill: #ffd56b; opacity: 0.95; }
  </style>

  <!-- Icon: Zahnrad minimal (ohne Bewegung) + Bulb -->
  <g>
    <circle cx="70" cy="110" r="40" fill="none" stroke="#37d5ff" stroke-width="5"/>
    <rect x="68" y="56"  width="4" height="14" fill="#37d5ff" rx="1"/>
    <rect x="68" y="150" width="4" height="14" fill="#37d5ff" rx="1"/>
    <rect x="26" y="108" width="14" height="4" fill="#37d5ff" rx="1"/>
    <rect x="100" y="108" width="14" height="4" fill="#37d5ff" rx="1"/>
    <rect x="42" y="73"  width="4" height="12" fill="#37d5ff" rx="1" transform="rotate(-45 44 79)"/>
    <rect x="94" y="125" width="4" height="12" fill="#37d5ff" rx="1" transform="rotate(-45 96 131)"/>
    <rect x="42" y="125" width="4" height="12" fill="#37d5ff" rx="1" transform="rotate(45 44 131)"/>
    <rect x="94" y="73"  width="4" height="12" fill="#37d5ff" rx="1" transform="rotate(45 96 79)"/>
    <circle cx="70" cy="110" r="10" fill="#0a0a0a" stroke="#37d5ff" stroke-width="4"/>
    <!-- Bulb -->
    <circle cx="130" cy="115" r="18" fill="none" stroke="#ffd56b" stroke-width="3"/>
    <rect x="120" y="114" width="20" height="3" fill="#ffd56b" rx="1.5"/>
    <rect x="123" y="132" width="14" height="8" rx="2" fill="#8e8e93"/>
  </g>

  <!-- TEXT -->
  <g transform="translate(180, 90)">
    <text class="mono brand" x="0" y="0" font-size="48">stack-by-oli.dev</text>
    <text class="mono slogan" x="0" y="38" font-size="18">"Building the future, one line of code at a time."</text>
  </g>
</svg>
